<svg width="376px" height="667px" viewBox="0 0 376 667" version="1.1" xmlns="http://www.w3.org/2000/svg" xmlns:xlink="http://www.w3.org/1999/xlink">
    <!-- Generator: Sketch 42 (36781) - http://www.bohemiancoding.com/sketch -->
    <desc>Created with Sketch.</desc>
    <defs>
        <polygon id="path-1" points="14.2849824 26 0.0709008076 26 0.0709008076 0.891893352 14.2849824 0.891893352 14.2849824 26"></polygon>
    </defs>
    <polygon id="Fill-1" stroke="none" fill="#E4EFB7" fill-rule="evenodd" points="0 667 376 667 376 0 0 0"></polygon>
    <path d="M156.882662,276.778654 L158.836361,281.182312 L153.541468,280.837803 C153.460371,283.106035 155.021856,285.72535 157.813065,287.553085 C161.736682,290.122433 171.255988,289.312444 171.255988,289.312444 C171.255988,289.312444 169.271325,280.971925 165.346233,278.402577 C162.555024,276.574842 159.28608,276.031781 156.882662,276.778654" id="Fill-1" stroke="none" fill="#FFBABA" fill-rule="evenodd"></path>
    <path d="M302.431024,351.971664 L307.029958,350.145244 L306.503565,354.610703 C308.839157,354.58309 311.586131,353.162979 313.560473,350.739587 C316.333988,347.335266 315.80907,339.370813 315.80907,339.370813 C315.80907,339.370813 307.15234,341.386581 304.378825,344.790902 C302.404483,347.212979 301.739488,349.983509 302.431024,351.971664" id="Fill-3" stroke="none" fill="#FBA6CC" fill-rule="evenodd"></path>
    <path d="M259.342451,322.949734 L253.571298,321.855723 L257.519982,317.946474 C255.284655,316.538198 251.582211,316.196319 247.839956,317.281126 C242.578977,318.805115 236.924308,326.680154 236.924308,326.680154 C236.924308,326.680154 246.68838,330.085789 251.949359,328.5618 C255.691614,327.476993 258.462181,325.260043 259.342451,322.949734" id="Fill-5" stroke="none" fill="#FBA6CC" fill-rule="evenodd"></path>
    <path d="M125.797468,329.002297 C125.797468,329.002297 119.616407,329.062783 114.079697,328.907623 C107.229218,328.451347 107.537386,319.014187 114.227146,319.014187 L115.352182,319.014187 L116.301754,319.014187 C122.317672,319.014187 127.195284,314.665756 127.195284,309.299579 L127.195284,309.04843 C127.195284,303.683568 122.317672,299.333822 116.301754,299.333822 L53.893973,299.333822 C47.8780546,299.333822 43.0004423,303.683568 43.0004423,309.04843 L43.0004423,309.299579 C43.0004423,314.665756 47.8780546,319.014187 53.893973,319.014187 L90.4981821,319.014187 L92.0744117,319.014187 C97.021325,319.014187 98.896876,327.875413 91.6851464,329.002297 L89.0310648,329.002297 C83.8231668,329.002297 79.6002281,332.76822 79.6002281,337.412507 L79.6002281,337.85169 C79.6002281,342.495977 83.8231668,346.261899 89.0310648,346.261899 L125.797468,346.261899 C131.005366,346.261899 135.228305,342.495977 135.228305,337.85169 L135.228305,337.412507 C135.228305,332.76822 131.005366,329.002297 125.797468,329.002297" id="Fill-7" stroke="none" fill="#FEFEFE" fill-rule="evenodd"></path>
    <path d="M114.079992,328.908018 C114.292319,328.922482 114.486952,328.955355 114.711074,328.952725 C117.102696,328.914592 116.406737,328.902758 114.079992,328.908018" id="Fill-9" stroke="none" fill="#FEFEFE" fill-rule="evenodd"></path>
    <path d="M331.994327,212.594393 L299.16776,212.594393 L297.893801,212.594393 C293.89351,212.594393 292.37626,205.42941 298.207867,204.518172 L300.35325,204.518172 C304.564393,204.518172 307.977837,201.474139 307.977837,197.718736 L307.977837,197.363708 C307.977837,193.608305 304.564393,190.564272 300.35325,190.564272 L270.626061,190.564272 C266.413444,190.564272 263,193.608305 263,197.363708 L263,197.718736 C263,201.474139 266.413444,204.518172 270.626061,204.518172 C270.626061,204.518172 274.437617,204.541841 280.098184,204.595752 C285.639316,204.963929 285.390128,212.594393 279.981699,212.594393 L280.385709,212.594393 C276.410485,212.594393 272.725735,216.111797 272.725735,220.449708 L272.725735,220.652206 C272.725735,224.991432 276.669995,228.508835 281.534337,228.508835 L331.994327,228.508835 C336.858668,228.508835 340.802929,224.991432 340.802929,220.652206 L340.802929,220.449708 C340.802929,216.111797 336.858668,212.594393 331.994327,212.594393" id="Fill-11" stroke="none" fill="#FEFEFE" fill-rule="evenodd"></path>
    <path d="M271.19381,259.031218 C271.022769,259.019383 270.864999,258.993085 270.683637,258.995715 C268.756479,259.025958 269.325632,259.035162 271.19381,259.031218" id="Fill-13" stroke="none" fill="#FEFEFE" fill-rule="evenodd"></path>
    <path d="M241.049017,230.03484 L237.555951,233.35895 L236.072614,229 C233.902165,229.845492 231.960262,232.141337 231.187629,235.099901 C230.097981,239.260298 234.110068,246.523901 234.110068,246.523901 C234.110068,246.523901 241.314425,241.594276 242.402599,237.433878 C243.176706,234.475315 242.575114,231.650873 241.049017,230.03484" id="Fill-15" stroke="none" fill="#FFC9E1" fill-rule="evenodd"></path>
    <path d="M85.513227,386.257734 L81.5291556,387.483236 L82.3312781,383.793579 C80.3820026,383.666032 77.9756352,384.673259 76.132523,386.566739 C73.5418444,389.226817 73.3339413,395.902651 73.3339413,395.902651 C73.3339413,395.902651 80.7167117,394.781027 83.3059158,392.119634 C85.1490281,390.227469 85.9290332,387.960551 85.513227,386.257734" id="Fill-18" stroke="none" fill="#FAA2C9" fill-rule="evenodd"></path>
    <path d="M230,542.920118 C230,546.18901 211.196,548.840237 188,548.840237 C164.804,548.840237 146,546.18901 146,542.920118 C146,539.651226 164.804,537 188,537 C211.196,537 230,539.651226 230,542.920118" id="Fill-2" stroke="none" fill-opacity="0.360000014" fill="#6AB266" fill-rule="evenodd"></path>
    <g id="Riko1-1" stroke="none" stroke-width="1" fill="none" fill-rule="evenodd" transform="translate(110.000000, 405.000000)">
        <path d="M83.0951,89.2001 C92.8211,95.5751 102.8061,99.1331 112.5071,97.6041 C122.2331,96.0711 132.9151,90.0641 132.2581,91.8871 C129.9411,98.3131 125.4051,104.8211 115.9771,105.9421 C107.4471,106.9571 100.9951,103.5981 94.7261,100.7991 C88.4581,97.9991 83.0951,89.2001 83.0951,89.2001" id="Fill-1" fill="#FBC941"></path>
        <path d="M81.7108,83.246 C83.5278,85.934 90.0758,93.592 95.7048,98.63 C101.3338,103.668 112.4498,108.919 117.8278,108.834 C123.2048,108.75 112.4648,115.283 105.9158,113.949 C94.2218,111.568 90.5088,103.599 85.7348,96.939 C80.9608,90.281 80.4048,84.713 80.4958,83.77 C80.5878,82.828 81.7108,83.246 81.7108,83.246" id="Fill-3" fill="#F6AC2D"></path>
        <path d="M27.4774,70.0805 C26.5934,67.9835 20.6784,60.8475 16.6024,60.4625 C15.3894,60.3455 14.4074,60.8115 13.7464,61.8045 C12.5554,63.5935 11.3454,65.4845 10.7784,67.2095 C10.5704,67.8415 10.6684,68.5475 11.0534,69.1965 C11.6244,70.1575 12.7514,70.8565 14.1694,71.1175 C19.0674,72.0205 22.0994,72.3145 24.0004,72.3145 C26.6414,72.3145 27.0974,71.7475 27.3304,71.4585 C27.5084,71.2365 27.7644,70.7635 27.4774,70.0805" id="Fill-5" fill="#F1AB3F"></path>
        <path d="M38.0526,77.1469 L36.6006,80.2279 C36.5326,80.3699 34.9686,83.6959 34.0426,86.3759 C32.5036,89.0519 33.0126,89.9129 33.2056,90.2389 C33.4926,90.7249 34.0136,91.0119 34.6026,91.0119 L34.6306,91.0119 L42.1156,90.8959 L38.0526,77.1469 Z" id="Fill-7" fill="#2A2F88"></path>
        <path d="M116.8949,94.7026 C116.2079,96.8906 112.1699,104.2936 110.6989,101.9166 C109.2289,99.5406 108.2919,88.8416 113.9229,90.8966 C119.5549,92.9526 116.8949,94.7026 116.8949,94.7026" id="Fill-9" fill="#2A2F88"></path>
        <path d="M37.5111,29.4023 C28.4281,29.6063 22.0501,12.4243 18.8501,12.9003 C11.8971,13.9333 11.2401,27.6313 13.7161,33.7673 C15.4751,38.1273 17.4681,41.5363 23.1741,45.4393 C28.8811,49.3423 37.5111,29.4023 37.5111,29.4023" id="Fill-11" fill="#F6AC2D"></path>
        <path d="M30.9745,25.2817 C30.1635,24.5247 29.1585,22.7627 28.2705,21.2097 C26.7865,18.6107 26.0235,17.3507 24.9045,17.1107 C24.4395,17.0097 23.9815,17.1087 23.6025,17.3847 C22.5725,18.1357 11.8365,30.2747 10.2125,39.2607 C8.8025,47.0667 11.5605,48.6957 16.1775,50.7077 C16.8605,51.0047 17.5895,51.3217 18.3525,51.6937 C21.8365,53.3907 23.3785,54.0607 24.4285,54.0607 C24.7245,54.0607 24.9805,54.0087 25.2305,53.9097 C26.0645,53.5827 26.3545,52.8327 26.4635,52.5507 C26.9025,51.4167 30.3285,32.2967 31.3695,26.4637 L31.4935,25.7647 L30.9745,25.2817 Z" id="Fill-13" fill="#33A4DE"></path>
        <path d="M136.4461,9.517 C134.7831,7.667 132.6171,6.633 130.2381,6.665 C128.8861,6.672 127.9971,7.089 127.5931,7.905 C126.8341,9.445 128.2881,11.365 130.1301,13.794 C131.1711,15.168 132.2481,16.589 132.7711,17.77 L134.6411,20.187 C135.2511,20.955 135.8361,21.175 136.3041,21.175 C136.4731,21.175 136.6271,21.147 136.7601,21.106 C138.1881,20.665 138.3441,18.527 138.5261,16.049 C138.5591,15.595 138.5901,15.172 138.6291,14.826 C138.7991,13.291 137.9221,11.158 136.4461,9.517" id="Fill-15" fill="#F6AC2D"></path>
        <path d="M154.0926,17.2904 C153.3286,15.5334 151.8656,14.5274 150.2006,14.5274 C147.0126,14.5784 140.0036,19.3634 139.2156,19.9094 L138.7536,20.2284 L138.5056,23.9214 L139.6666,23.9994 C139.6986,24.0024 140.6396,24.0284 142.0226,24.0284 C145.6516,24.0284 152.3216,23.8434 153.5776,22.5394 C154.7126,21.3594 154.9246,19.2014 154.0926,17.2904" id="Fill-17" fill="#F6AC2D"></path>
        <path d="M146.4139,7.5668 C145.4699,6.0608 143.9089,5.0128 142.0209,4.6158 C141.3889,4.4858 140.7749,4.6068 140.2539,4.9748 C138.7779,6.0208 138.4049,8.8578 137.9739,12.1428 C137.7379,13.9368 137.2479,17.6678 136.5299,18.0088 L135.4689,18.1818 L135.5639,19.2588 C135.6089,19.7768 135.8619,22.4168 136.3409,23.5498 C136.5459,24.0348 137.0039,24.3348 137.5249,24.3348 C137.5609,24.3348 137.5979,24.3328 137.6339,24.3298 C138.0759,24.2958 138.9959,24.2228 142.9259,19.0308 C143.8129,17.8578 146.7429,13.8948 147.1829,12.1228 C147.5589,10.6048 147.2779,8.9448 146.4139,7.5668" id="Fill-19" fill="#FBC941"></path>
        <path d="M104.7289,15.4643 C115.3969,22.5733 131.7509,25.3673 134.0749,20.0533 C135.9749,15.7123 141.1989,21.9663 139.7909,23.8503 C138.5249,25.5433 135.2489,29.6723 127.4849,30.3143 C121.6369,30.7983 113.8319,27.3003 112.0259,26.0423 C110.2199,24.7843 104.7289,15.4643 104.7289,15.4643" id="Fill-21" fill="#D2E2F4"></path>
        <path d="M104.7289,15.4643 C115.3969,22.5733 131.7509,25.3673 134.0749,20.0533 C135.9749,15.7123 141.1989,21.9663 139.7909,23.8503 C138.5249,25.5433 135.2489,29.6723 127.4849,30.3143 C121.6369,30.7983 113.8319,27.3003 112.0259,26.0423 C110.2199,24.7843 104.7289,15.4643 104.7289,15.4643 Z" id="Stroke-23" stroke="#97CBD2" stroke-width="1.914"></path>
        <path d="M91.6273,4.2372 C110.9203,12.5772 119.8593,24.4682 122.3903,40.0472 C124.9213,55.6262 121.5243,64.7352 117.3773,73.5872 C112.6693,83.6372 99.0163,98.8522 70.0133,96.1122 C53.5593,94.5572 28.6723,78.7222 23.1163,60.7762 C15.0843,34.8372 35.8603,12.4322 46.5733,6.2982 C57.4433,0.0742 74.6593,-3.0968 91.6273,4.2372" id="Fill-28" fill="#FBC941"></path>
        <path d="M82.7098,36.9291 C81.8038,36.4151 80.7498,36.3081 79.6608,36.6181 C78.0198,37.0891 76.3838,38.5211 75.3908,40.3561 C72.8668,45.0201 75.5518,47.1421 76.8228,47.8371 C77.6028,48.2641 78.3958,48.4791 79.1668,48.4791 C79.5948,48.4791 80.0168,48.4121 80.4258,48.2801 C81.7278,47.8541 82.8138,46.7791 83.5668,45.1701 C84.9588,42.2001 85.1308,38.3031 82.7098,36.9291" id="Fill-30" fill="#5F2C87"></path>
        <path d="M44.9315,22.3422 C44.7095,21.4572 44.1745,20.7882 43.3825,20.4082 C41.2755,19.3982 38.6815,20.5882 37.0765,23.3082 C35.5135,25.9522 35.7185,28.5342 37.5835,29.7342 C38.4025,30.2602 39.1355,30.4682 39.7865,30.4682 C41.6055,30.4682 42.7875,28.8532 43.3815,28.0412 C44.2405,26.8702 45.4185,24.2882 44.9315,22.3422" id="Fill-32" fill="#5F2C87"></path>
        <path d="M48.0042,27.498 C54.2242,25.834 62.3942,32.429 64.0812,38.303 C64.4072,39.438 63.7762,40.886 62.5962,41.085 C53.3902,42.644 46.0812,46.954 42.2192,44.246 C40.5692,43.088 41.2222,32.895 45.7102,29.157 C46.3532,28.622 47.2232,27.706 48.0042,27.498" id="Fill-34" fill="#FFF68E"></path>
        <path d="M48.9862,31.2109 C48.6382,31.8419 48.4522,32.3459 48.0492,32.1239 C47.6452,31.9009 47.5992,31.2089 47.9472,30.5779 C48.2952,29.9469 48.9042,29.6159 49.3082,29.8389 C49.7122,30.0619 49.3342,30.5799 48.9862,31.2109" id="Fill-36" fill="#F0AA42"></path>
        <path d="M56.4691,34.5976 C56.0771,35.2016 55.3011,35.3946 54.7351,35.0286 C54.1691,34.6616 54.4991,34.3536 54.8911,33.7486 C55.2821,33.1446 55.5881,32.4726 56.1541,32.8396 C56.7191,33.2056 56.8611,33.9936 56.4691,34.5976" id="Fill-38" fill="#F0AA42"></path>
        <path d="M117.4603,21.2777 C120.8213,23.2507 120.8063,28.2117 119.3133,29.0887" id="Stroke-40" stroke="#97CBD2" stroke-width="1.914"></path>
        <path d="M122.7572,22.4535 C125.5382,23.6905 126.4282,28.5905 123.9712,30.1335" id="Stroke-42" stroke="#97CBD2" stroke-width="1.914"></path>
        <path d="M126.5492,22.8305 C129.7852,23.9555 130.3292,28.3985 128.6052,30.0945" id="Stroke-44" stroke="#97CBD2" stroke-width="1.914"></path>
        <path d="M130.0897,22.496 C133.7657,23.416 134.0907,27.456 132.7657,29.293" id="Stroke-46" stroke="#97CBD2" stroke-width="1.914"></path>
        <path d="M133.3631,21.1005 C136.3441,21.7715 137.8271,24.0065 136.9241,26.8525" id="Stroke-48" stroke="#97CBD2" stroke-width="1.914"></path>
        <path d="M43.8753,68.7143 C43.8573,68.6413 43.8333,68.5703 43.8003,68.5033 C43.6413,67.9133 43.1693,66.1113 41.7973,60.7163 C40.4803,55.5383 36.9073,50.3263 33.4513,45.2863 C29.8763,40.0713 26.4983,35.1463 26.3803,31.2403 C26.3653,30.7753 26.0323,30.3813 25.5753,30.2903 C25.1153,30.1933 24.6603,30.4363 24.4693,30.8603 C16.4823,48.5613 18.4743,51.1953 19.5443,52.6113 C19.5973,52.6823 19.6473,52.7403 19.6633,52.7533 C19.7763,53.1803 20.0773,54.3093 42.0983,69.6003 C42.2713,69.9523 42.4793,70.1143 42.8093,70.1143 C42.9143,70.1143 43.0333,70.0983 43.1673,70.0663 C43.2663,70.0413 44.1263,69.8003 43.8753,68.7143" id="Fill-50" fill="#34B2E7"></path>
        <path d="M121.7108,65.6772 C121.5478,65.2612 121.1848,64.9572 120.7458,64.8722 C89.3828,58.7682 51.2198,55.1402 39.0818,57.1012 C28.4868,58.8172 22.5658,65.2262 22.3188,65.4982 C22.0268,65.8202 21.9148,66.2642 22.0188,66.6862 C22.1218,67.1072 22.4278,67.4482 22.8348,67.5982 L99.3118,95.6692 C99.4588,95.7232 99.6098,95.7492 99.7608,95.7492 C100.1668,95.7492 100.5618,95.5582 100.8128,95.2162 L121.5488,66.9222 C121.8128,66.5622 121.8728,66.0922 121.7108,65.6772" id="Fill-52" fill="#34B2E7"></path>
        <path d="M105.8133,68.5595 C115.7343,64.8935 127.6103,70.3925 133.1523,76.6205 C134.4773,78.1095 137.4903,80.5575 136.3983,82.8855 C135.1733,85.4965 129.9883,91.3375 121.0213,93.7935 C117.3363,94.8025 112.0213,96.3865 105.0973,94.9285 C101.5183,94.1735 97.5773,93.3435 95.4453,90.6645 C90.9753,85.0495 95.3443,72.4275 105.8133,68.5595" id="Fill-54" fill="#F6AC2D"></path>
        <path d="M103.0345,98.3002 C101.4985,96.5462 100.5685,95.2642 101.5925,93.5112 L102.5475,91.8792 L100.6625,91.6022 C83.9935,89.1552 68.0775,84.0772 52.0055,76.0762 C44.9975,72.5882 31.5825,63.7752 28.2865,61.2632 C27.5765,60.7202 26.7325,59.9372 25.8385,59.1072 C23.0435,56.5102 20.1535,53.8222 17.5365,54.6012 C16.7195,54.8442 13.7595,56.1632 12.3085,56.8272 C7.4435,59.0532 7.4235,59.2152 7.3265,59.9882 L7.2325,60.8352 L7.9585,61.2632 C11.3945,63.2872 12.8885,67.0802 14.7805,71.8812 C15.6075,73.9842 16.5465,76.3652 17.7465,78.7972 C21.8395,87.0872 31.2015,91.3212 34.6975,90.7692 C35.8195,90.5932 36.5715,89.9202 36.7075,88.9692 C36.8145,88.2172 37.0585,87.1472 37.3375,86.0782 C39.2125,91.3742 42.9815,96.1032 48.0985,99.4472 L48.2715,99.5592 L48.4715,99.6142 C56.8375,101.8722 63.7865,103.5732 77.0975,104.9122 C79.9015,105.1942 82.6485,105.3142 85.2515,105.3142 C94.2975,105.3142 101.5945,103.8712 103.4205,102.8012 C104.2015,102.3442 104.4485,101.7442 104.5185,101.3212 C104.7015,100.2052 103.8915,99.2802 103.0345,98.3002" id="Fill-56" fill="#34B2E7"></path>
        <path d="M103.0345,98.3002 C101.4985,96.5462 100.5685,95.2642 101.5925,93.5112 L102.5475,91.8792 L100.6625,91.6022 C83.9935,89.1552 68.0775,84.0772 52.0055,76.0762 C44.9975,72.5882 31.5825,63.7752 28.2865,61.2632 C27.5765,60.7202 26.7325,59.9372 25.8385,59.1072 C23.0435,56.5102 20.1535,53.8222 17.5365,54.6012 C16.7195,54.8442 13.7595,56.1632 12.3085,56.8272 C7.4435,59.0532 7.4235,59.2152 7.3265,59.9882 L7.2325,60.8352 L7.9585,61.2632 C11.3945,63.2872 12.8885,67.0802 14.7805,71.8812 C15.6075,73.9842 16.5465,76.3652 17.7465,78.7972 C21.8395,87.0872 31.2015,91.3212 34.6975,90.7692 C35.8195,90.5932 36.5715,89.9202 36.7075,88.9692 C36.8145,88.2172 37.0585,87.1472 37.3375,86.0782 C39.2125,91.3742 42.9815,96.1032 48.0985,99.4472 L48.2715,99.5592 L48.4715,99.6142 C56.8375,101.8722 63.7865,103.5732 77.0975,104.9122 C79.9015,105.1942 82.6485,105.3142 85.2515,105.3142 C94.2975,105.3142 101.5945,103.8712 103.4205,102.8012 C104.2015,102.3442 104.4485,101.7442 104.5185,101.3212 C104.7015,100.2052 103.8915,99.2802 103.0345,98.3002" id="Fill-58" fill="#34B2E7"></path>
        <path d="M98.4012,89.0356 L97.6652,88.8966 C64.2402,82.6116 29.3092,61.9896 19.9462,50.5546 L18.7422,49.0846 L15.2242,55.2806 L15.6732,55.9506 C20.3342,62.8826 33.4532,72.3386 49.9122,80.6276 C67.7942,89.6336 85.6822,95.2846 98.9932,96.1336 L100.9652,96.2596 L98.4012,89.0356 Z" id="Fill-60" fill="#5F2C87"></path>
        <path d="M125.7777,69.5087 C119.8917,65.8477 112.7657,62.2887 102.6437,66.4137 C96.4097,68.9557 92.4237,76.2477 90.7737,82.2247 C89.2357,87.7887 89.4747,92.6467 91.4117,95.2187 C93.3507,97.7957 94.4717,98.9867 97.8227,100.4167 C103.9527,103.0357 107.3527,104.1917 109.3547,104.1917 C110.2497,104.1917 110.8647,103.9607 111.3197,103.5257 C111.7047,103.1587 112.2677,102.3307 111.7497,100.9667 C111.4627,99.6517 113.3527,89.3017 117.9997,81.9807 L118.1607,81.7267 C119.9997,78.8277 122.2887,75.2207 125.9997,71.7117 C126.3147,71.4137 126.4737,70.9877 126.4307,70.5557 C126.3857,70.1247 126.1457,69.7377 125.7777,69.5087" id="Fill-62" fill="#33A4DE"></path>
        <path d="M92.1673,57.7538 C91.2233,60.5808 86.5843,61.5798 81.8063,59.9838 C77.0273,58.3888 73.9193,54.8028 74.8633,51.9768 C75.8073,49.1498 80.4463,48.1508 85.2243,49.7468 C90.0023,51.3418 93.1113,54.9268 92.1673,57.7538" id="Fill-64" fill="#ED7E8D"></path>
        <path d="M35.3006,33.2406 C33.7036,35.3496 30.0316,35.7286 27.0986,34.0876 C24.1656,32.4466 23.0816,29.4076 24.6776,27.2986 C26.2746,25.1886 29.9466,24.8096 32.8796,26.4506 C35.8126,28.0916 36.8966,31.1316 35.3006,33.2406" id="Fill-66" fill="#ED7E8D"></path>
        <path d="M40.6849,56.8837 C36.9119,57.8787 33.1539,59.3457 33.1539,59.3457 C33.1539,59.3457 36.7879,57.3457 40.2719,56.1397 L40.6849,56.8837 Z" id="Fill-68" fill="#2A2F88"></path>
        <path d="M13.1087,68.6191 C12.7437,67.7791 11.7677,67.3951 10.9277,67.7601 C10.5307,67.9321 10.1477,68.1061 9.7807,68.2781 C10.9607,64.7551 11.7127,60.0971 8.6527,57.8011 C7.9187,57.2521 6.8807,57.4011 6.3317,58.1331 C5.7827,58.8651 5.9307,59.9041 6.6637,60.4531 C7.7447,61.2641 7.6647,63.4101 7.0667,65.7481 C6.3437,63.7181 5.0087,61.8461 2.3517,60.6221 C1.5207,60.2381 0.5347,60.6021 0.1527,61.4331 C-0.2303,62.2651 0.1327,63.2491 0.9637,63.6331 C3.9967,65.0301 4.3597,67.4561 4.7017,71.2981 L4.7737,72.0871 C4.7757,72.1151 4.7847,72.1401 4.7897,72.1671 C4.7927,72.1941 4.7987,72.2181 4.8037,72.2441 C4.8357,72.4061 4.8837,72.5601 4.9577,72.7011 C4.9607,72.7061 4.9637,72.7101 4.9667,72.7161 C5.0497,72.8691 5.1547,73.0051 5.2787,73.1241 C5.2837,73.1281 5.2857,73.1351 5.2907,73.1391 C5.2927,73.1411 5.2967,73.1431 5.2987,73.1451 C5.3737,73.2151 5.4537,73.2771 5.5397,73.3311 C5.5417,73.3321 5.5427,73.3331 5.5437,73.3341 C5.7997,73.4951 6.1017,73.5881 6.4217,73.5881 C6.4747,73.5881 6.5267,73.5861 6.5807,73.5811 C6.6627,73.5731 6.7407,73.5531 6.8197,73.5341 C6.8417,73.5281 6.8637,73.5271 6.8847,73.5211 C7.0207,73.4821 7.1467,73.4241 7.2637,73.3541 C7.2737,73.3481 7.2857,73.3471 7.2957,73.3411 C7.3167,73.3271 9.4427,72.0211 12.2497,70.8001 C13.0887,70.4351 13.4737,69.4581 13.1087,68.6191" id="Fill-70" fill="#F6AC3C"></path>
    </g>
</svg>
